<?xml version="1.0" standalone="no"?>
<!DOCTYPE svg PUBLIC "-//W3C//DTD SVG 20010904//EN"
 "http://www.w3.org/TR/2001/REC-SVG-20010904/DTD/svg10.dtd">
<svg version="1.0" xmlns="http://www.w3.org/2000/svg"
 width="480.000000pt" height="384.000000pt" viewBox="0 0 480.000000 384.000000"
 preserveAspectRatio="xMidYMid meet">

<g transform="translate(0.000000,384.000000) scale(0.100000,-0.100000)"
fill="#000000" stroke="none">
<path d="M4201 3691 c-10 -10 -20 -23 -22 -28 -2 -6 -42 -23 -89 -38 -47 -15
-146 -55 -220 -87 -74 -33 -173 -76 -220 -95 -98 -42 -380 -185 -482 -244 -38
-22 -95 -52 -126 -66 -128 -56 -403 -216 -432 -251 -27 -33 -61 -123 -75 -203
-4 -19 -10 -40 -14 -47 -4 -6 -48 -16 -99 -22 -51 -6 -172 -26 -268 -45 l-175
-35 -77 39 c-42 22 -94 47 -114 56 -21 10 -38 22 -38 29 0 6 27 40 60 76 63
70 71 90 17 44 -19 -16 -44 -36 -57 -44 -12 -8 -40 -30 -62 -47 -22 -18 -48
-33 -57 -33 -10 0 -25 15 -34 33 l-16 32 5 -41 c6 -40 -12 -94 -35 -108 -16
-11 -195 54 -248 89 -66 44 -80 45 -29 3 35 -29 76 -101 76 -134 0 -8 -7 -17
-15 -20 -14 -6 -225 70 -285 101 -14 7 -43 16 -65 20 -60 11 -185 73 -229 114
-38 35 -38 36 -21 6 10 -16 25 -41 34 -55 19 -30 81 -203 75 -209 -2 -3 -11 4
-19 15 -20 27 -18 13 6 -43 33 -74 77 -233 66 -233 -25 0 -97 43 -98 58 -1 10
-9 -13 -18 -50 l-16 -67 -50 45 c-28 25 -93 68 -145 95 -93 50 -94 51 -60 17
19 -18 55 -47 79 -63 54 -37 69 -71 73 -168 4 -92 -4 -103 -59 -88 -26 7 -58
7 -98 1 -33 -5 -105 -10 -160 -11 -95 -1 -97 -2 -43 -10 32 -4 77 -17 102 -29
25 -11 49 -20 54 -20 5 0 15 -6 21 -14 10 -11 7 -19 -10 -35 -21 -19 -21 -21
-6 -45 22 -33 12 -54 -29 -62 -42 -8 -42 -21 2 -58 26 -22 37 -26 48 -17 11 9
16 -1 26 -51 8 -35 12 -69 11 -75 -1 -7 3 -13 9 -13 5 0 10 -7 10 -15 0 -18
-31 -20 -48 -3 -9 9 -19 5 -42 -17 l-31 -30 7 42 6 42 -56 16 c-31 9 -60 14
-65 11 -14 -9 -23 11 -16 34 4 13 15 20 32 20 37 0 105 -21 127 -39 10 -9 4 5
-14 32 -30 45 -73 77 -103 77 -13 0 -91 -33 -174 -72 -12 -6 -25 -23 -28 -39
-5 -23 -17 -32 -66 -51 -32 -13 -59 -26 -59 -29 0 -12 44 -22 85 -20 22 1 77
11 123 22 88 21 121 16 123 -19 1 -17 0 -23 -8 -55 -4 -13 -1 -16 11 -11 11 4
16 1 16 -10 0 -9 3 -16 8 -17 48 -7 93 -4 121 7 18 8 49 14 67 14 27 0 35 -5
40 -25 3 -13 1 -38 -4 -55 -10 -28 -9 -31 19 -46 17 -8 29 -22 27 -30 -2 -9
-57 -37 -130 -66 -71 -28 -127 -53 -125 -54 2 -2 54 13 117 32 63 20 133 39
155 43 44 8 147 45 246 87 81 34 161 64 173 64 5 0 -3 -12 -18 -26 -29 -30
-33 -44 -11 -44 8 0 15 -7 15 -15 0 -14 22 -20 62 -17 10 1 18 -3 18 -9 0 -11
-156 -284 -245 -429 -54 -87 -95 -164 -95 -177 0 -20 89 81 220 250 46 59 55
55 83 -36 14 -45 30 -108 37 -139 6 -32 15 -60 19 -62 4 -3 24 6 44 19 38 27
57 31 57 15 0 -29 144 120 203 211 10 14 28 32 42 39 36 19 51 2 71 -86 17
-71 26 -86 39 -64 11 19 34 10 48 -17 21 -44 81 -289 93 -383 4 -30 15 -79 26
-109 10 -30 18 -73 18 -96 0 -24 3 -58 7 -76 8 -34 8 -34 14 16 15 116 67 352
109 495 10 36 21 79 25 95 3 17 15 61 26 98 l20 68 30 -22 c28 -19 31 -20 48
-5 10 9 22 16 27 16 15 0 91 -120 100 -155 7 -31 77 -181 113 -245 11 -19 24
-51 30 -70 8 -30 9 -26 4 26 -3 33 0 103 7 155 18 142 57 369 64 376 3 3 24
-8 45 -25 46 -37 50 -38 66 -15 12 16 17 14 59 -22 59 -51 147 -106 157 -99 4
2 13 -4 19 -13 10 -16 11 -15 6 5 -3 15 3 31 15 43 20 20 20 20 63 -18 48 -42
207 -190 356 -330 54 -51 102 -93 106 -93 4 0 -4 12 -18 28 -14 15 -52 76 -83
135 l-57 108 53 -34 c30 -19 79 -47 109 -62 30 -15 67 -39 83 -53 34 -32 35
-21 2 22 -14 18 -40 72 -59 118 l-33 86 56 -14 c31 -7 59 -13 62 -14 4 0 -2
17 -12 37 -22 43 -24 69 -6 76 7 3 5 6 -5 6 -16 1 -24 24 -31 90 -3 36 50 51
99 28 50 -24 54 -21 11 8 -32 22 -36 30 -31 53 4 15 16 42 27 61 19 32 20 36
4 63 -9 15 -14 35 -11 43 3 8 -6 30 -21 49 -25 33 -27 41 -20 91 3 30 9 55 11
55 29 0 107 -30 141 -54 45 -31 75 -28 35 5 -27 21 -102 134 -102 152 0 9 2 9
8 -1 5 -7 16 -10 24 -7 9 4 29 0 45 -8 15 -8 57 -23 93 -33 36 -9 77 -26 93
-36 15 -11 27 -15 27 -9 0 6 -9 15 -20 21 -11 6 -29 27 -40 48 -11 20 -35 58
-55 84 l-36 46 88 7 c48 4 106 9 130 10 23 1 46 4 49 8 4 4 23 7 43 7 34 1 31
3 -42 37 -43 20 -76 41 -74 47 6 20 138 35 422 50 449 24 485 27 485 42 0 16
-24 23 -229 73 -196 48 -235 73 -97 62 18 -2 26 1 21 8 -3 6 0 11 7 11 7 1 27
7 43 15 17 8 21 13 10 10 -33 -8 -215 -32 -215 -29 0 9 71 37 238 94 100 35
181 65 179 67 -4 3 -29 -2 -187 -38 -51 -11 -59 -10 -105 10 l-50 23 57 29
c43 22 59 36 65 57 10 43 -25 306 -52 379 -22 62 -60 114 -97 134 -36 19 -125
-40 -172 -115 -32 -51 -57 -52 -83 -3 -14 28 -14 33 1 61 8 17 32 69 51 116
20 47 56 122 81 168 l45 83 -88 -47 c-117 -63 -239 -132 -286 -161 -22 -14
-40 -23 -42 -21 -2 2 12 28 32 58 37 59 83 153 83 172 0 7 -28 -34 -63 -91
l-63 -103 -102 -54 -102 -54 -11 27 c-28 73 -18 118 49 216 47 68 260 292 390
407 140 125 144 128 173 117 47 -18 96 24 72 61 -9 16 -4 25 38 61 27 23 49
49 49 57 0 16 -44 18 -102 5 -28 -7 -40 -5 -49 5 -16 20 -46 17 -68 -5z m61
-46 c5 -22 21 -52 35 -67 26 -27 26 -29 10 -46 -16 -15 -20 -15 -44 -2 -15 8
-38 37 -51 63 -21 40 -23 51 -13 73 18 40 53 29 63 -21z m-202 -59 c0 -2 -35
-20 -77 -40 -43 -21 -87 -43 -98 -49 -11 -6 -54 -30 -95 -53 -41 -24 -109 -60
-150 -82 -41 -21 -84 -43 -95 -49 -11 -6 -40 -21 -65 -33 -25 -12 -94 -54
-155 -94 -111 -73 -164 -101 -288 -154 -37 -16 -64 -32 -60 -35 3 -4 0 -7 -7
-7 -16 0 -91 -49 -103 -67 -4 -7 -13 -13 -19 -13 -11 0 -25 -11 -76 -61 -30
-29 -53 -110 -72 -259 -19 -148 -19 -147 -96 -110 -66 32 -70 53 -39 206 25
123 28 131 68 172 54 56 156 117 396 237 106 53 210 107 230 119 65 42 207
115 328 170 65 30 158 73 207 96 139 67 266 117 266 106z m-824 -645 c54 -39
81 -71 89 -104 6 -22 4 -26 -8 -21 -9 3 -20 -2 -26 -15 -14 -26 2 -36 24 -15
9 9 19 13 23 9 14 -14 5 -91 -15 -130 -28 -54 -57 -79 -123 -108 -47 -20 -63
-22 -112 -16 -96 13 -173 78 -197 164 -23 83 -10 103 39 65 l25 -20 -22 0
c-13 0 -23 -4 -23 -10 0 -15 47 -12 53 3 3 6 6 -3 6 -20 1 -27 -3 -33 -19 -33
-11 0 -20 -5 -20 -11 0 -7 11 -9 30 -6 33 7 52 -11 26 -25 -17 -10 -22 -38 -7
-38 6 0 17 10 25 22 13 17 18 19 30 9 14 -11 14 -15 1 -28 -21 -20 -19 -33 4
-33 11 0 23 9 26 20 3 11 15 20 26 20 15 0 18 -5 14 -23 -8 -30 19 -57 29 -31
4 10 2 22 -4 28 -18 18 -11 26 25 26 24 0 35 5 35 15 0 22 27 18 40 -5 6 -11
17 -20 26 -20 12 0 12 4 4 20 -6 11 -17 20 -25 20 -21 0 -19 16 4 32 17 12 19
23 13 101 -3 34 -58 85 -106 98 -29 8 -52 8 -82 1 -39 -11 -124 1 -124 17 0 7
58 47 81 56 12 4 18 -1 23 -19 9 -37 30 -33 23 4 l-6 30 68 0 c59 0 73 -4 107
-29z m-206 -116 c40 -20 84 -35 104 -35 27 0 34 -4 30 -14 -3 -8 -1 -24 6 -35
8 -17 8 -21 -4 -21 -8 0 -21 -7 -30 -15 -13 -13 -17 -12 -38 15 -14 18 -45 38
-76 49 -62 23 -111 52 -138 82 l-19 22 47 -6 c26 -4 79 -22 118 -42z m1337
-126 c8 -8 7 -18 -3 -37 -18 -36 -18 -166 1 -228 8 -27 12 -58 9 -69 -4 -16
-3 -17 5 -5 6 8 11 12 11 8 0 -3 3 -13 6 -22 4 -10 1 -16 -9 -16 -13 0 -14 -6
-6 -32 5 -17 8 -32 6 -33 -15 -11 -73 -35 -84 -35 -16 0 -38 22 -80 80 -31 41
-33 49 -33 124 0 52 5 91 15 110 8 15 15 38 15 50 0 31 91 115 126 116 5 0 15
-5 21 -11z m-375 -44 c3 -3 -3 -40 -13 -83 -26 -110 -25 -170 6 -223 14 -24
25 -47 25 -51 0 -16 -28 5 -39 29 -15 34 -23 25 -12 -14 8 -27 5 -35 -18 -57
-15 -14 -32 -26 -37 -26 -20 0 -46 39 -68 100 -25 69 -40 80 -44 33 -2 -22 3
-38 17 -52 12 -12 21 -27 21 -34 0 -8 11 -24 25 -37 14 -13 25 -26 25 -29 0
-10 -70 -52 -70 -42 0 5 7 11 15 15 8 3 15 10 15 15 0 14 -58 43 -70 36 -6 -3
-7 1 -4 10 4 8 2 21 -4 28 -5 6 -13 28 -18 47 l-8 35 -7 -40 c-4 -22 -5 -70
-2 -107 4 -44 2 -68 -4 -68 -6 0 -14 7 -17 16 -4 9 -9 15 -11 12 -10 -9 7 -38
21 -38 49 0 -20 -51 -186 -137 -132 -69 -207 -98 -375 -143 -66 -18 -172 -50
-235 -70 -63 -21 -142 -43 -175 -49 -110 -21 -200 -42 -220 -52 -33 -15 -184
-47 -280 -59 -49 -7 -141 -23 -202 -36 -154 -32 -356 -68 -553 -98 -91 -14
-180 -28 -197 -32 -27 -5 -33 -3 -33 10 0 9 -12 21 -27 27 -16 6 -35 16 -43
24 -8 7 -31 15 -50 17 -49 4 -53 36 -8 63 31 19 31 20 10 23 -21 3 -21 5 -7
25 8 12 15 29 15 38 0 23 -80 94 -110 96 -60 4 -103 23 -145 66 -37 36 -45 52
-47 84 -1 43 34 101 88 145 39 32 154 108 164 108 4 0 21 -7 36 -15 16 -8 36
-15 45 -15 8 0 20 -5 26 -11 13 -13 185 -13 210 -1 10 5 40 15 68 21 68 16
153 67 176 105 21 35 25 106 7 124 -20 20 -2 26 201 76 231 57 335 69 459 51
43 -6 57 -13 76 -38 13 -18 26 -41 30 -52 7 -19 8 -19 20 -2 18 24 23 22 65
-21 43 -44 102 -62 226 -67 44 -1 150 -6 235 -10 149 -7 159 -6 255 20 55 15
122 31 149 36 27 4 54 13 60 19 5 5 16 10 24 10 13 0 89 31 124 50 21 12 24 7
33 -50 12 -76 22 -76 27 1 6 100 47 165 121 197 27 12 27 12 25 -26 -4 -76 2
-138 12 -122 5 8 10 26 10 39 0 35 21 89 37 95 9 4 12 -1 9 -17 -14 -66 -16
-102 -10 -142 8 -57 24 -59 17 -2 -5 40 -4 41 11 22 14 -19 15 -16 16 46 0 73
14 127 38 147 16 12 45 16 54 7z m-142 -20 c0 -8 -4 -15 -10 -15 -5 0 -7 7 -4
15 4 8 8 15 10 15 2 0 4 -7 4 -15z m216 -66 c2 -44 -32 -149 -48 -149 -11 0
-10 18 2 25 6 3 10 30 10 59 0 70 10 118 23 113 6 -2 12 -23 13 -48z m-1789
-25 c-3 -3 -12 -4 -19 -1 -8 3 -5 6 6 6 11 1 17 -2 13 -5z m1241 -11 c-2 -9
-31 -28 -73 -44 -82 -34 -77 -33 -73 -13 2 8 32 28 68 44 78 34 82 35 78 13z
m-1708 -34 c0 -5 -7 -9 -15 -9 -15 0 -20 12 -9 23 8 8 24 -1 24 -14z m766 -27
c51 -35 161 -53 323 -53 89 0 139 -4 130 -9 -8 -5 -14 -15 -14 -22 0 -9 -24
-15 -80 -18 -100 -6 -145 -2 -145 15 0 23 -31 27 -37 5 -4 -17 -14 -20 -57
-20 -70 0 -121 16 -158 49 -28 25 -30 31 -24 67 7 32 10 36 19 24 7 -9 26 -26
43 -38z m-1456 8 c0 -5 -2 -10 -4 -10 -3 0 -8 5 -11 10 -3 6 -1 10 4 10 6 0
11 -4 11 -10z m2200 -25 c-1 -14 -62 -34 -159 -51 -75 -14 -86 -14 -99 0 -13
13 -12 15 9 19 13 3 69 14 124 25 109 21 127 22 125 7z m-2183 -27 c-3 -8 -6
-5 -6 6 -1 11 2 17 5 13 3 -3 4 -12 1 -19z m355 -10 c12 -20 10 -26 -17 -44
-21 -14 -30 -14 -54 -4 -38 15 -48 40 -24 58 21 16 82 9 95 -10z m-212 -40 c0
-10 -12 -11 -70 -8 -70 3 -66 15 6 16 35 0 64 -3 64 -8z m270 -9 c0 -11 -13
-34 -29 -50 -24 -24 -38 -29 -78 -29 -71 0 -125 17 -121 38 3 10 10 15 19 12
8 -3 43 -4 78 -4 54 1 67 5 89 28 32 31 42 33 42 5z m-153 -5 c-3 -3 -12 -4
-19 -1 -8 3 -5 6 6 6 11 1 17 -2 13 -5z m1736 -21 c-7 -2 -19 -2 -25 0 -7 3
-2 5 12 5 14 0 19 -2 13 -5z m-2318 -445 c-7 -52 -44 -158 -59 -175 -11 -11
-41 -16 -78 -14 -23 1 -24 50 -2 97 16 34 119 134 137 134 5 0 6 -19 2 -42z
m-232 -76 c-3 -12 -9 -22 -14 -22 -12 0 -11 7 2 32 13 25 20 19 12 -10z m2755
-59 c-10 -2 -28 -2 -40 0 -13 2 -5 4 17 4 22 1 32 -1 23 -4z m69 -53 c-5 -19
6 -24 51 -23 6 1 12 -6 12 -14 0 -11 -6 -12 -22 -6 -46 16 -284 -8 -392 -39
-32 -10 -40 -9 -50 3 -14 20 -36 13 -36 -11 0 -13 -10 -19 -39 -23 -61 -8
-228 -55 -308 -86 -40 -16 -69 -23 -65 -17 3 6 7 15 7 21 0 7 147 75 162 75 2
0 3 -7 3 -15 0 -8 7 -15 15 -15 18 0 20 16 3 26 -6 4 46 25 118 46 210 62 370
94 493 97 49 1 53 -1 48 -19z m-2714 -37 c-7 -2 -21 -2 -30 0 -10 3 -4 5 12 5
17 0 24 -2 18 -5z m81 -38 c-6 -15 -42 -19 -81 -9 -37 10 -15 24 37 24 40 0
48 -3 44 -15z m221 -5 c-19 -21 -69 -25 -93 -7 -20 16 5 27 62 27 49 0 49 0
31 -20z m2348 -65 c-2 -106 -53 -355 -72 -355 -4 0 -12 17 -17 38 -15 59 -34
46 -84 -55 -46 -95 -64 -110 -88 -73 -14 22 -42 26 -60 8 -9 -9 -17 -6 -37 12
-25 23 -25 23 -47 4 -12 -10 -35 -34 -51 -51 -16 -18 -33 -33 -38 -33 -5 0
-17 19 -28 43 -11 23 -56 83 -101 134 -103 117 -134 198 -92 236 29 26 137 63
286 96 76 17 143 34 148 37 17 11 211 42 248 41 l35 -2 -2 -80z m-3126 20 c-4
-8 -13 -15 -22 -15 -13 0 -12 3 2 20 19 22 29 19 20 -5z m2248 -39 c-31 -18
-50 -22 -85 -18 l-45 5 70 17 c96 24 106 24 60 -4z m-148 -22 c-3 -3 -12 -4
-19 -1 -8 3 -5 6 6 6 11 1 17 -2 13 -5z m-37 -14 c0 -6 22 -8 58 -5 l57 5 -50
-18 c-30 -12 -49 -25 -48 -33 2 -15 -108 -104 -165 -131 -44 -22 -67 -22 -123
-2 -49 17 -97 13 -148 -12 -51 -25 -225 -2 -278 38 -7 6 -20 5 -32 -1 -11 -6
-47 -14 -81 -18 -33 -3 -63 -10 -66 -14 -9 -16 -84 -10 -90 6 -4 8 -18 15 -33
16 -44 1 139 38 224 44 93 8 469 71 503 85 12 5 52 15 90 21 37 7 85 15 107
19 60 11 75 11 75 0z m260 -27 c-1 -10 -47 -63 -55 -63 -10 0 -5 26 11 48 14
21 44 31 44 15z m-1865 -63 c3 -5 1 -10 -4 -10 -6 0 -11 5 -11 10 0 6 2 10 4
10 3 0 8 -4 11 -10z m365 -10 c-8 -5 -22 -10 -30 -10 -13 0 -13 1 0 10 8 5 22
10 30 10 13 0 13 -1 0 -10z m1126 -185 l26 -24 -23 -10 c-44 -18 -163 -43
-202 -43 -21 1 -48 -3 -60 -8 -19 -8 -18 -9 11 -9 18 -1 31 -5 27 -11 -3 -5
-13 -6 -22 -3 -19 7 -19 8 32 -50 14 -15 25 -30 25 -33 0 -8 -54 9 -78 24 -28
18 -52 3 -27 -18 17 -14 20 -46 5 -55 -5 -3 -10 -26 -10 -50 0 -24 -4 -46 -10
-50 -5 -3 -7 13 -3 43 5 46 3 51 -28 80 -40 37 -50 39 -74 12 -17 -19 -18 -26
-7 -66 7 -24 12 -54 12 -67 0 -28 -26 -67 -46 -67 -20 0 -18 16 6 40 11 11 20
29 20 40 0 35 -27 88 -54 105 -28 19 -33 33 -13 39 55 18 107 40 107 47 0 5
-21 9 -46 9 -25 0 -43 4 -40 8 3 5 19 7 37 4 20 -3 34 0 40 9 7 11 12 12 28 2
13 -8 22 -9 26 -3 3 6 18 10 33 10 61 1 -8 17 -120 29 -65 6 -130 16 -145 22
-34 12 -54 36 -46 55 4 12 56 14 299 14 l293 0 27 -25z m362 -47 c-7 -20 -58
-23 -58 -4 0 11 10 16 31 16 20 0 29 -4 27 -12z m-1058 -58 c0 -5 -2 -10 -4
-10 -3 0 -8 5 -11 10 -3 6 -1 10 4 10 6 0 11 -4 11 -10z m540 -71 c0 -5 -4 -9
-10 -9 -5 0 -10 7 -10 16 0 8 5 12 10 9 6 -3 10 -10 10 -16z m-690 -24 c0 -8
-7 -15 -15 -15 -8 0 -15 7 -15 15 0 8 7 15 15 15 8 0 15 -7 15 -15z m580 -280
c0 -18 -25 -26 -38 -13 -8 8 -8 17 -1 30 8 15 13 17 25 7 8 -6 14 -17 14 -24z"/>
<path d="M3117 2953 c-14 -13 -6 -33 12 -33 25 0 38 20 20 31 -17 11 -24 11
-32 2z"/>
<path d="M2980 2915 c0 -8 7 -15 15 -15 9 0 12 6 9 15 -4 8 -10 15 -15 15 -5
0 -9 -7 -9 -15z"/>
<path d="M3195 2921 c-8 -15 3 -31 21 -31 9 0 14 7 12 17 -4 20 -24 28 -33 14z"/>
<path d="M3268 2862 c-10 -2 -18 -8 -18 -13 0 -13 27 -11 35 2 9 13 4 16 -17
11z"/>
<path d="M3170 2596 c0 -18 16 -29 30 -21 13 8 1 35 -16 35 -8 0 -14 -6 -14
-14z"/>
<path d="M3921 2374 c-1 -31 5 -58 14 -70 13 -16 14 -16 9 -1 -3 9 -10 41 -14
70 l-8 52 -1 -51z"/>
<path d="M2870 2149 c-102 -32 -201 -64 -220 -69 -59 -17 -60 -19 -46 -85 7
-33 18 -71 25 -84 l13 -24 197 7 c224 7 321 18 337 40 19 26 -7 144 -52 239
-14 29 -23 37 -43 37 -14 -1 -109 -28 -211 -61z m244 8 c7 -19 19 -58 25 -87
18 -85 6 -91 -239 -125 -58 -8 -126 -14 -152 -15 l-46 0 -12 50 c-11 45 -25
68 -35 58 -2 -2 4 -26 14 -55 17 -50 17 -52 -1 -57 -21 -5 -31 14 -47 84 l-9
38 87 27 c47 14 147 46 221 70 168 54 176 55 194 12z m43 -223 c-3 -3 -12 -4
-19 -1 -8 3 -5 6 6 6 11 1 17 -2 13 -5z"/>
<path d="M3070 2150 c0 -27 29 -123 39 -133 14 -14 14 -6 -5 67 -15 59 -34 96
-34 66z"/>
<path d="M3016 2128 c27 -86 42 -122 52 -126 11 -3 -3 59 -29 125 -11 30 -33
31 -23 1z"/>
<path d="M2964 2114 c4 -10 12 -40 17 -66 11 -48 29 -75 29 -41 -1 37 -26 117
-40 121 -9 3 -11 -1 -6 -14z"/>
<path d="M2910 2103 c0 -26 33 -123 42 -123 12 0 10 27 -7 67 -8 19 -15 44
-15 54 0 11 -4 19 -10 19 -5 0 -10 -7 -10 -17z"/>
<path d="M2863 2077 c6 -40 35 -112 42 -105 8 8 -29 138 -39 138 -5 0 -6 -15
-3 -33z"/>
<path d="M2805 2053 c10 -43 35 -97 41 -91 8 9 -26 118 -38 118 -6 0 -7 -11
-3 -27z"/>
<path d="M2750 2056 c0 -22 37 -103 51 -112 9 -5 10 -2 5 11 -4 11 -14 41 -23
67 -15 46 -33 64 -33 34z"/>
<path d="M2700 2052 c0 -20 39 -102 49 -102 13 0 -16 85 -35 101 -9 7 -14 8
-14 1z"/>
<path d="M2320 1978 c-19 -5 -40 -14 -46 -19 -6 -5 -15 -55 -19 -111 -8 -114
-4 -122 55 -114 l35 5 -32 -12 c-18 -7 -38 -18 -45 -26 -11 -12 -9 -13 12 -6
14 4 42 9 63 12 52 7 67 39 67 145 0 85 -14 131 -40 135 -8 1 -31 -3 -50 -9z
m60 -25 c0 -10 2 -47 4 -83 2 -41 1 -56 -4 -40 -4 14 -8 42 -9 63 -1 44 -17
54 -62 38 -23 -8 -30 -8 -26 2 2 6 21 17 43 24 53 16 54 16 54 -4z m-50 -87
c0 -26 -6 -48 -15 -56 -13 -11 -15 -8 -15 21 0 43 10 79 21 79 5 0 9 -20 9
-44z m-10 -100 c0 -9 -40 -13 -46 -5 -3 5 6 9 20 9 14 0 26 -2 26 -4z"/>
<path d="M1869 1877 c-67 -57 -26 -158 63 -157 47 1 67 20 74 73 8 54 -2 71
-54 93 -45 18 -52 18 -83 -9z m76 -9 c24 -11 34 -28 17 -28 -15 0 -62 25 -62
33 0 10 15 9 45 -5z m-5 -54 c0 -7 -9 -18 -20 -24 -17 -9 -20 -8 -20 13 0 13
3 26 6 30 10 9 34 -4 34 -19z"/>
<path d="M1681 1814 c-24 -31 -27 -76 -6 -94 8 -6 31 -14 53 -17 43 -6 56 5
65 51 4 23 -1 36 -23 58 -35 35 -63 36 -89 2z m63 -2 c3 -5 -8 -9 -25 -9 -19
0 -25 3 -17 9 17 10 35 10 42 0z m-4 -52 c0 -5 -4 -10 -10 -10 -5 0 -10 5 -10
10 0 6 5 10 10 10 6 0 10 -4 10 -10z"/>
<path d="M1460 1782 c-58 -59 -25 -142 58 -142 52 0 75 26 75 86 0 54 -15 72
-66 81 -31 5 -40 1 -67 -25z m85 -2 c3 -5 -1 -10 -9 -10 -9 0 -16 5 -16 10 0
6 4 10 9 10 6 0 13 -4 16 -10z m-25 -50 c0 -13 -7 -20 -20 -20 -18 0 -19 3
-10 20 6 11 15 20 20 20 6 0 10 -9 10 -20z"/>
<path d="M1271 1749 c-14 -15 -21 -36 -21 -60 0 -51 35 -79 99 -79 29 0 41 3
32 9 -9 6 -10 11 -2 15 20 13 13 81 -11 104 -37 33 -72 37 -97 11z m59 -70 c0
-5 -7 -9 -15 -9 -15 0 -20 12 -9 23 8 8 24 -1 24 -14z"/>
<path d="M2283 1678 c-27 -13 -32 -34 -5 -22 9 4 41 10 70 12 28 2 50 8 46 13
-7 12 -84 10 -111 -3z"/>
<path d="M2536 2463 c-11 -11 -6 -23 9 -23 8 0 15 4 15 9 0 13 -16 22 -24 14z"/>
<path d="M3217 1703 c-13 -12 -7 -23 13 -23 11 0 20 7 20 15 0 15 -21 21 -33
8z"/>
</g>
</svg>
